Raleway-ExtraBold-Italic-TTF.ufo
<glyph name="dollar" format="1">
  <advance width="620"/>
  <unicode hex="0024"/>
  <outline>
    <contour>
      <point x="529" y="502" type="line"/>
      <point x="527" y="505"/>
      <point x="504" y="524"/>
      <point x="467" y="545"/>
      <point x="419" y="564"/>
      <point x="392" y="568" type="qcurve"/>
      <point x="364" y="433" type="line"/>
      <point x="394" y="424" type="line"/>
      <point x="432" y="412"/>
      <point x="495" y="383"/>
      <point x="539" y="343"/>
      <point x="563" y="289"/>
      <point x="563" y="252" type="qcurve"/>
      <point x="563" y="185"/>
      <point x="515" y="89"/>
      <point x="435" y="27"/>
      <point x="334" y="-4"/>
      <point x="282" y="-7" type="qcurve"/>
      <point x="258" y="-123" type="line"/>
      <point x="188" y="-123" type="line"/>
      <point x="213" y="-6" type="line"/>
      <point x="149" y="0"/>
      <point x="30" y="45"/>
      <point x="-14" y="80" type="qcurve"/>
      <point x="88" y="223" type="line"/>
      <point x="90" y="218"/>
      <point x="118" y="195"/>
      <point x="163" y="170"/>
      <point x="223" y="147"/>
      <point x="256" y="142" type="qcurve"/>
      <point x="284" y="273" type="line"/>
      <point x="238" y="289" type="line"/>
      <point x="166" y="315"/>
      <point x="95" y="385"/>
      <point x="95" y="444" type="qcurve"/>
      <point x="95" y="504"/>
      <point x="140" y="599"/>
      <point x="215" y="668"/>
      <point x="313" y="709"/>
      <point x="367" y="714" type="qcurve"/>
      <point x="388" y="815" type="line"/>
      <point x="456" y="815" type="line"/>
      <point x="435" y="714" type="line"/>
      <point x="495" y="708"/>
      <point x="594" y="662"/>
      <point x="629" y="638" type="qcurve"/>
    </contour>
    <contour>
      <point x="379" y="203" type="qcurve"/>
      <point x="379" y="222"/>
      <point x="350" y="247"/>
      <point x="326" y="257" type="qcurve"/>
      <point x="301" y="140" type="line"/>
      <point x="343" y="142"/>
      <point x="379" y="177"/>
    </contour>
    <contour>
      <point x="275" y="500" type="qcurve"/>
      <point x="275" y="482"/>
      <point x="299" y="459"/>
      <point x="322" y="449" type="qcurve"/>
      <point x="347" y="569" type="line"/>
      <point x="312" y="566"/>
      <point x="275" y="529"/>
    </contour>
  </outline>
</glyph>
<glyph name="eight" format="1">
  <advance width="587"/>
  <unicode hex="0038"/>
  <outline>
    <contour>
      <point x="226" y="-9" type="qcurve"/>
      <point x="182" y="-9"/>
      <point x="106" y="18"/>
      <point x="50" y="68"/>
      <point x="19" y="138"/>
      <point x="19" y="181" type="qcurve"/>
      <point x="19" y="219"/>
      <point x="44" y="282"/>
      <point x="82" y="331"/>
      <point x="128" y="367"/>
      <point x="149" y="379" type="qcurve"/>
      <point x="127" y="393"/>
      <point x="102" y="450"/>
      <point x="102" y="482" type="qcurve"/>
      <point x="102" y="536"/>
      <point x="156" y="621"/>
      <point x="239" y="679"/>
      <point x="336" y="710"/>
      <point x="379" y="710" type="qcurve"/>
      <point x="414" y="710"/>
      <point x="483" y="688"/>
      <point x="539" y="645"/>
      <point x="573" y="582"/>
      <point x="573" y="540" type="qcurve"/>
      <point x="573" y="514"/>
      <point x="555" y="464"/>
      <point x="526" y="422"/>
      <point x="488" y="389"/>
      <point x="469" y="379" type="qcurve"/>
      <point x="492" y="361"/>
      <point x="529" y="293"/>
      <point x="529" y="248" type="qcurve"/>
      <point x="529" y="192"/>
      <point x="478" y="98"/>
      <point x="394" y="29"/>
      <point x="284" y="-9"/>
    </contour>
    <contour>
      <point x="257" y="136" type="qcurve"/>
      <point x="278" y="136"/>
      <point x="318" y="153"/>
      <point x="348" y="181"/>
      <point x="367" y="220"/>
      <point x="367" y="243" type="qcurve"/>
      <point x="367" y="277"/>
      <point x="326" y="313"/>
      <point x="295" y="313" type="qcurve"/>
      <point x="274" y="313"/>
      <point x="234" y="297"/>
      <point x="204" y="269"/>
      <point x="186" y="231"/>
      <point x="186" y="208" type="qcurve"/>
      <point x="186" y="176"/>
      <point x="227" y="136"/>
    </contour>
    <contour>
      <point x="320" y="433" type="qcurve"/>
      <point x="334" y="433"/>
      <point x="365" y="444"/>
      <point x="390" y="465"/>
      <point x="407" y="495"/>
      <point x="407" y="515" type="qcurve"/>
      <point x="407" y="539"/>
      <point x="375" y="569"/>
      <point x="349" y="569" type="qcurve"/>
      <point x="332" y="569"/>
      <point x="302" y="557"/>
      <point x="278" y="535"/>
      <point x="264" y="505"/>
      <point x="264" y="488" type="qcurve"/>
      <point x="264" y="461"/>
      <point x="299" y="433"/>
    </contour>
  </outline>
</glyph>
<glyph name="nine" format="1">
  <advance width="574"/>
  <unicode hex="0039"/>
  <outline>
    <contour>
      <point x="169" y="-155" type="qcurve"/>
      <point x="106" y="-155"/>
      <point x="10" y="-101"/>
      <point x="-22" y="-50" type="qcurve"/>
      <point x="90" y="52" type="line"/>
      <point x="107" y="20"/>
      <point x="165" y="-16"/>
      <point x="201" y="-16" type="qcurve"/>
      <point x="254" y="-16"/>
      <point x="334" y="68"/>
      <point x="353" y="145" type="qcurve"/>
      <point x="327" y="118"/>
      <point x="261" y="88"/>
      <point x="223" y="88" type="qcurve"/>
      <point x="179" y="88"/>
      <point x="108" y="117"/>
      <point x="58" y="168"/>
      <point x="31" y="239"/>
      <point x="31" y="280" type="qcurve"/>
      <point x="31" y="339"/>
      <point x="82" y="445"/>
      <point x="167" y="524"/>
      <point x="278" y="571"/>
      <point x="339" y="571" type="qcurve"/>
      <point x="433" y="571"/>
      <point x="533" y="444"/>
      <point x="533" y="332" type="qcurve"/>
      <point x="533" y="231"/>
      <point x="480" y="53"/>
      <point x="384" y="-79"/>
      <point x="250" y="-155"/>
    </contour>
    <contour>
      <point x="263" y="214" type="qcurve"/>
      <point x="286" y="214"/>
      <point x="330" y="235"/>
      <point x="365" y="271"/>
      <point x="386" y="318"/>
      <point x="386" y="344" type="qcurve"/>
      <point x="386" y="382"/>
      <point x="344" y="436"/>
      <point x="310" y="436" type="qcurve"/>
      <point x="288" y="436"/>
      <point x="244" y="414"/>
      <point x="208" y="377"/>
      <point x="186" y="328"/>
      <point x="186" y="302" type="qcurve"/>
      <point x="186" y="264"/>
      <point x="228" y="214"/>
    </contour>
  </outline>
</glyph>
<glyph name="question" format="1">
  <advance width="476"/>
  <unicode hex="003F"/>
  <outline>
    <contour>
      <point x="92" y="245" type="line"/>
      <point x="96" y="268"/>
      <point x="110" y="310"/>
      <point x="134" y="349"/>
      <point x="171" y="383"/>
      <point x="200" y="397" type="qcurve"/>
      <point x="234" y="414"/>
      <point x="288" y="444"/>
      <point x="326" y="476"/>
      <point x="347" y="511"/>
      <point x="347" y="534" type="qcurve"/>
      <point x="347" y="560"/>
      <point x="314" y="590"/>
      <point x="290" y="590" type="qcurve"/>
      <point x="272" y="590"/>
      <point x="241" y="575"/>
      <point x="215" y="554"/>
      <point x="193" y="528"/>
      <point x="185" y="518" type="qcurve"/>
      <point x="97" y="590" type="line"/>
      <point x="135" y="651"/>
      <point x="256" y="719"/>
      <point x="324" y="719" type="qcurve"/>
      <point x="355" y="719"/>
      <point x="416" y="701"/>
      <point x="462" y="663"/>
      <point x="491" y="603"/>
      <point x="491" y="561" type="qcurve"/>
      <point x="491" y="519"/>
      <point x="471" y="456"/>
      <point x="437" y="408"/>
      <point x="391" y="372"/>
      <point x="364" y="356" type="qcurve"/>
      <point x="341" y="342"/>
      <point x="295" y="320"/>
      <point x="255" y="296"/>
      <point x="227" y="266"/>
      <point x="223" y="245" type="qcurve"/>
    </contour>
    <contour>
      <point x="42" y="0" type="line"/>
      <point x="74" y="150" type="line"/>
      <point x="205" y="150" type="line"/>
      <point x="173" y="0" type="line"/>
    </contour>
  </outline>
</glyph>
<glyph name="T" format="1">
  <advance width="596"/>
  <unicode hex="0054"/>
  <outline>
    <contour>
      <point x="384" y="708" type="move" name="top"/>
    </contour>
    <contour>
      <point x="233" y="0" type="move" name="bottom"/>
    </contour>
    <contour>
      <point x="273" y="566" type="line"/>
      <point x="70" y="566" type="line"/>
      <point x="100" y="710" type="line"/>
      <point x="669" y="710" type="line"/>
      <point x="639" y="566" type="line"/>
      <point x="437" y="566" type="line"/>
      <point x="316" y="0" type="line"/>
      <point x="152" y="0" type="line"/>
    </contour>
  </outline>
</glyph>
<glyph name="b" format="1">
  <advance width="619"/>
  <unicode hex="0062"/>
  <outline>
    <contour>
      <point x="293" y="-10" type="qcurve"/>
      <point x="236" y="-10"/>
      <point x="162" y="41"/>
      <point x="148" y="87" type="qcurve"/>
      <point x="130" y="0" type="line"/>
      <point x="-10" y="0" type="line"/>
      <point x="145" y="730" type="line"/>
      <point x="305" y="730" type="line"/>
      <point x="243" y="439" type="line"/>
      <point x="275" y="483"/>
      <point x="369" y="535"/>
      <point x="421" y="535" type="qcurve"/>
      <point x="462" y="535"/>
      <point x="526" y="502"/>
      <point x="569" y="445"/>
      <point x="591" y="368"/>
      <point x="591" y="323" type="qcurve"/>
      <point x="591" y="254"/>
      <point x="541" y="133"/>
      <point x="459" y="42"/>
      <point x="351" y="-10"/>
    </contour>
    <contour>
      <point x="279" y="125" type="qcurve"/>
      <point x="307" y="125"/>
      <point x="359" y="152"/>
      <point x="399" y="197"/>
      <point x="423" y="257"/>
      <point x="423" y="291" type="qcurve"/>
      <point x="423" y="336"/>
      <point x="380" y="399"/>
      <point x="342" y="399" type="qcurve"/>
      <point x="308" y="399"/>
      <point x="239" y="347"/>
      <point x="216" y="308" type="qcurve"/>
      <point x="192" y="198" type="line"/>
      <point x="202" y="164"/>
      <point x="245" y="125"/>
    </contour>
  </outline>
</glyph>
<glyph name="k" format="1">
  <advance width="570"/>
  <unicode hex="006B"/>
  <outline>
    <contour>
      <point x="231" y="0" type="move" name="bottom"/>
    </contour>
    <contour>
      <point x="145" y="730" type="line"/>
      <point x="304" y="730" type="line"/>
      <point x="233" y="394" type="line"/>
      <point x="273" y="458"/>
      <point x="376" y="531"/>
      <point x="436" y="531" type="qcurve"/>
      <point x="491" y="531"/>
      <point x="548" y="469"/>
      <point x="548" y="413" type="qcurve"/>
      <point x="548" y="347"/>
      <point x="475" y="235"/>
      <point x="406" y="198" type="qcurve"/>
      <point x="495" y="0" type="line"/>
      <point x="325" y="0" type="line"/>
      <point x="237" y="227" type="line"/>
      <point x="316" y="242"/>
      <point x="404" y="309"/>
      <point x="404" y="350" type="qcurve"/>
      <point x="404" y="372"/>
      <point x="380" y="395"/>
      <point x="360" y="395" type="qcurve"/>
      <point x="339" y="395"/>
      <point x="293" y="370"/>
      <point x="249" y="328"/>
      <point x="212" y="271"/>
      <point x="200" y="239" type="qcurve"/>
      <point x="149" y="0" type="line"/>
      <point x="-10" y="0" type="line"/>
    </contour>
  </outline>
</glyph>
<glyph name="currency" format="1">
  <advance width="580"/>
  <unicode hex="00A4"/>
  <outline>
    <contour>
      <point x="194" y="501" type="line"/>
      <point x="216" y="513"/>
      <point x="268" y="527"/>
      <point x="299" y="527" type="qcurve"/>
      <point x="329" y="527"/>
      <point x="380" y="513"/>
      <point x="402" y="502" type="qcurve"/>
      <point x="471" y="572" type="line"/>
      <point x="533" y="510" type="line"/>
      <point x="467" y="444" type="line"/>
      <point x="498" y="397"/>
      <point x="498" y="338" type="qcurve"/>
      <point x="498" y="277"/>
      <point x="466" y="230" type="qcurve"/>
      <point x="533" y="164" type="line"/>
      <point x="476" y="107" type="line"/>
      <point x="404" y="174" type="line"/>
      <point x="360" y="149"/>
      <point x="299" y="149" type="qcurve"/>
      <point x="267" y="149"/>
      <point x="214" y="163"/>
      <point x="192" y="175" type="qcurve"/>
      <point x="120" y="107" type="line"/>
      <point x="63" y="164" type="line"/>
      <point x="130" y="232" type="line"/>
      <point x="116" y="255"/>
      <point x="100" y="309"/>
      <point x="100" y="338" type="qcurve"/>
      <point x="100" y="396"/>
      <point x="129" y="442" type="qcurve"/>
      <point x="63" y="510" type="line"/>
      <point x="125" y="572" type="line"/>
    </contour>
    <contour>
      <point x="215" y="337" type="qcurve"/>
      <point x="215" y="296"/>
      <point x="263" y="246"/>
      <point x="299" y="246" type="qcurve"/>
      <point x="335" y="246"/>
      <point x="383" y="296"/>
      <point x="383" y="338" type="qcurve"/>
      <point x="383" y="380"/>
      <point x="335" y="429"/>
      <point x="299" y="429" type="qcurve"/>
      <point x="263" y="429"/>
      <point x="215" y="379"/>
    </contour>
  </outline>
</glyph>
<glyph name="degree" format="1">
  <advance width="285"/>
  <unicode hex="00B0"/>
  <outline>
    <contour>
      <point x="183" y="504" type="qcurve"/>
      <point x="143" y="504"/>
      <point x="97" y="550"/>
      <point x="97" y="588" type="qcurve"/>
      <point x="97" y="614"/>
      <point x="117" y="663"/>
      <point x="153" y="701"/>
      <point x="202" y="724"/>
      <point x="231" y="724" type="qcurve"/>
      <point x="271" y="724"/>
      <point x="317" y="675"/>
      <point x="317" y="637" type="qcurve"/>
      <point x="317" y="609"/>
      <point x="296" y="560"/>
      <point x="260" y="524"/>
      <point x="211" y="504"/>
    </contour>
    <contour>
      <point x="200" y="579" type="qcurve"/>
      <point x="214" y="579"/>
      <point x="240" y="604"/>
      <point x="240" y="621" type="qcurve"/>
      <point x="240" y="635"/>
      <point x="225" y="648"/>
      <point x="214" y="648" type="qcurve"/>
      <point x="199" y="648"/>
      <point x="173" y="624"/>
      <point x="173" y="608" type="qcurve"/>
      <point x="173" y="596"/>
      <point x="187" y="579"/>
    </contour>
  </outline>
</glyph>
<glyph name="twosuperior" format="1">
  <advance width="414"/>
  <unicode hex="00B2"/>
  <outline>
    <contour>
      <point x="46" y="383" type="line"/>
      <point x="55" y="425"/>
      <point x="80" y="487"/>
      <point x="119" y="535"/>
      <point x="176" y="571"/>
      <point x="216" y="587" type="qcurve"/>
      <point x="243" y="597"/>
      <point x="294" y="617"/>
      <point x="335" y="639"/>
      <point x="360" y="668"/>
      <point x="360" y="689" type="qcurve"/>
      <point x="360" y="709"/>
      <point x="325" y="727"/>
      <point x="295" y="727" type="qcurve"/>
      <point x="257" y="727"/>
      <point x="191" y="698"/>
      <point x="170" y="681" type="qcurve"/>
      <point x="126" y="749" type="line"/>
      <point x="138" y="761"/>
      <point x="177" y="786"/>
      <point x="229" y="805"/>
      <point x="292" y="818"/>
      <point x="328" y="818" type="qcurve"/>
      <point x="397" y="818"/>
      <point x="467" y="761"/>
      <point x="467" y="708" type="qcurve"/>
      <point x="467" y="670"/>
      <point x="439" y="614"/>
      <point x="395" y="575"/>
      <point x="340" y="550"/>
      <point x="313" y="542" type="qcurve"/>
      <point x="228" y="516"/>
      <point x="218" y="474" type="qcurve"/>
      <point x="405" y="474" type="line"/>
      <point x="385" y="383" type="line"/>
    </contour>
  </outline>
</glyph>
<glyph name="mu" format="1">
  <advance width="650"/>
  <unicode hex="00B5"/>
  <outline>
    <contour>
      <point x="113" y="525" type="line"/>
      <point x="273" y="525" type="line"/>
      <point x="209" y="224" type="line"/>
      <point x="204" y="199"/>
      <point x="204" y="184" type="qcurve"/>
      <point x="204" y="125"/>
      <point x="257" y="125" type="qcurve"/>
      <point x="281" y="125"/>
      <point x="342" y="159"/>
      <point x="373" y="201" type="qcurve"/>
      <point x="441" y="525" type="line"/>
      <point x="601" y="525" type="line"/>
      <point x="528" y="180" type="line"/>
      <point x="527" y="175"/>
      <point x="526" y="166"/>
      <point x="526" y="161" type="qcurve"/>
      <point x="526" y="147"/>
      <point x="541" y="136"/>
      <point x="559" y="135" type="qcurve"/>
      <point x="530" y="0" type="line"/>
      <point x="505" y="-5"/>
      <point x="469" y="-8"/>
      <point x="455" y="-8" type="qcurve"/>
      <point x="371" y="-8"/>
      <point x="371" y="56" type="qcurve"/>
      <point x="371" y="58"/>
      <point x="372" y="80"/>
      <point x="374" y="91" type="qcurve"/>
      <point x="365" y="76"/>
      <point x="331" y="41"/>
      <point x="288" y="11"/>
      <point x="240" y="-10"/>
      <point x="218" y="-10" type="qcurve"/>
      <point x="190" y="-10"/>
      <point x="161" y="16"/>
      <point x="159" y="38" type="qcurve"/>
      <point x="116" y="-213" type="line"/>
      <point x="-44" y="-213" type="line"/>
    </contour>
  </outline>
</glyph>
<glyph name="ordmasculine" format="1">
  <advance width="426"/>
  <unicode hex="00BA"/>
  <outline>
    <contour>
      <point x="226" y="519" type="move" name="top"/>
    </contour>
    <contour>
      <point x="225" y="0" type="move" name="bottom"/>
    </contour>
    <contour>
      <point x="219" y="336" type="qcurve"/>
      <point x="183" y="336"/>
      <point x="129" y="360"/>
      <point x="93" y="401"/>
      <point x="75" y="456"/>
      <point x="75" y="486" type="qcurve"/>
      <point x="75" y="529"/>
      <point x="107" y="612"/>
      <point x="166" y="675"/>
      <point x="249" y="714"/>
      <point x="300" y="714" type="qcurve"/>
      <point x="336" y="714"/>
      <point x="390" y="690"/>
      <point x="426" y="649"/>
      <point x="444" y="595"/>
      <point x="444" y="564" type="qcurve"/>
      <point x="444" y="521"/>
      <point x="412" y="439"/>
      <point x="354" y="375"/>
      <point x="270" y="336"/>
    </contour>
    <contour>
      <point x="240" y="433" type="qcurve"/>
      <point x="257" y="433"/>
      <point x="289" y="451"/>
      <point x="313" y="483"/>
      <point x="328" y="525"/>
      <point x="328" y="549" type="qcurve"/>
      <point x="328" y="580"/>
      <point x="302" y="617"/>
      <point x="279" y="617" type="qcurve"/>
      <point x="262" y="617"/>
      <point x="230" y="599"/>
      <point x="206" y="567"/>
      <point x="191" y="524"/>
      <point x="191" y="500" type="qcurve"/>
      <point x="191" y="470"/>
      <point x="217" y="433"/>
    </contour>
  </outline>
</glyph>
<glyph name="Agrave" format="1">
  <advance width="641"/>
  <unicode hex="00C0"/>
  <outline>
    <contour>
      <point x="337" y="710" type="line"/>
      <point x="486" y="710" type="line"/>
      <point x="578" y="0" type="line"/>
      <point x="410" y="0" type="line"/>
      <point x="395" y="159" type="line"/>
      <point x="193" y="159" type="line"/>
      <point x="112" y="0" type="line"/>
      <point x="-57" y="0" type="line"/>
    </contour>
    <contour>
      <point x="392" y="272" type="line"/>
      <point x="372" y="523" type="line"/>
      <point x="242" y="272" type="line"/>
    </contour>
    <contour>
      <point x="314" y="917" type="line"/>
      <point x="458" y="917" type="line"/>
      <point x="480" y="787" type="line"/>
      <point x="369" y="771" type="line"/>
    </contour>
  </outline>
</glyph>
<glyph name="Adieresis" format="1">
  <advance width="641"/>
  <unicode hex="00C4"/>
  <outline>
    <contour>
      <point x="337" y="710" type="line"/>
      <point x="486" y="710" type="line"/>
      <point x="578" y="0" type="line"/>
      <point x="410" y="0" type="line"/>
      <point x="395" y="159" type="line"/>
      <point x="193" y="159" type="line"/>
      <point x="112" y="0" type="line"/>
      <point x="-57" y="0" type="line"/>
    </contour>
    <contour>
      <point x="392" y="272" type="line"/>
      <point x="372" y="523" type="line"/>
      <point x="242" y="272" type="line"/>
    </contour>
    <contour>
      <point x="251" y="780" type="line"/>
      <point x="279" y="909" type="line"/>
      <point x="411" y="909" type="line"/>
      <point x="383" y="780" type="line"/>
    </contour>
    <contour>
      <point x="456" y="780" type="line"/>
      <point x="484" y="909" type="line"/>
      <point x="615" y="909" type="line"/>
      <point x="588" y="780" type="line"/>
    </contour>
  </outline>
</glyph>
<glyph name="multiply" format="1">
  <advance width="496"/>
  <unicode hex="00D7"/>
  <outline>
    <contour>
      <point x="435" y="181" type="line"/>
      <point x="335" y="82" type="line"/>
      <point x="239" y="177" type="line"/>
      <point x="144" y="82" type="line"/>
      <point x="45" y="181" type="line"/>
      <point x="140" y="276" type="line"/>
      <point x="50" y="367" type="line"/>
      <point x="150" y="466" type="line"/>
      <point x="240" y="376" type="line"/>
      <point x="330" y="466" type="line"/>
      <point x="429" y="367" type="line"/>
      <point x="339" y="277" type="line"/>
    </contour>
  </outline>
</glyph>
<glyph name="ccedilla" format="1">
  <advance width="548"/>
  <unicode hex="00E7"/>
  <outline>
    <contour>
      <point x="120" y="-127" type="line"/>
      <point x="129" y="-134"/>
      <point x="176" y="-147"/>
      <point x="202" y="-147" type="qcurve"/>
      <point x="228" y="-147"/>
      <point x="262" y="-130"/>
      <point x="262" y="-109" type="qcurve"/>
      <point x="262" y="-95"/>
      <point x="238" y="-83"/>
      <point x="217" y="-83" type="qcurve"/>
      <point x="197" y="-83"/>
      <point x="151" y="-91"/>
      <point x="139" y="-94" type="qcurve"/>
      <point x="198" y="-8" type="line"/>
      <point x="151" y="-3"/>
      <point x="81" y="35"/>
      <point x="34" y="94"/>
      <point x="11" y="169"/>
      <point x="11" y="211" type="qcurve"/>
      <point x="11" y="272"/>
      <point x="60" y="389"/>
      <point x="148" y="480"/>
      <point x="271" y="535"/>
      <point x="345" y="535" type="qcurve"/>
      <point x="433" y="535"/>
      <point x="535" y="458"/>
      <point x="552" y="396" type="qcurve"/>
      <point x="387" y="349" type="line"/>
      <point x="368" y="399"/>
      <point x="315" y="399" type="qcurve"/>
      <point x="289" y="399"/>
      <point x="239" y="373"/>
      <point x="200" y="328"/>
      <point x="177" y="266"/>
      <point x="177" y="229" type="qcurve"/>
      <point x="177" y="182"/>
      <point x="221" y="125"/>
      <point x="257" y="125" type="qcurve"/>
      <point x="283" y="125"/>
      <point x="334" y="154"/>
      <point x="350" y="177" type="qcurve"/>
      <point x="496" y="129" type="line"/>
      <point x="458" y="73"/>
      <point x="338" y="-1"/>
      <point x="262" y="-8" type="qcurve"/>
      <point x="237" y="-38" type="line"/>
      <point x="249" y="-35"/>
      <point x="265" y="-35" type="qcurve"/>
      <point x="294" y="-35"/>
      <point x="337" y="-63"/>
      <point x="337" y="-95" type="qcurve"/>
      <point x="337" y="-117"/>
      <point x="317" y="-156"/>
      <point x="278" y="-186"/>
      <point x="219" y="-204"/>
      <point x="179" y="-204" type="qcurve"/>
      <point x="146" y="-204"/>
      <point x="95" y="-191"/>
      <point x="78" y="-183" type="qcurve"/>
    </contour>
  </outline>
</glyph>
<glyph name="eth" format="1">
  <advance width="597"/>
  <unicode hex="00F0"/>
  <outline>
    <contour>
      <point x="593" y="651" type="line"/>
      <point x="516" y="613" type="line"/>
      <point x="545" y="561"/>
      <point x="574" y="439"/>
      <point x="574" y="377" type="qcurve"/>
      <point x="574" y="289"/>
      <point x="522" y="146"/>
      <point x="430" y="45"/>
      <point x="303" y="-10"/>
      <point x="229" y="-10" type="qcurve"/>
      <point x="178" y="-10"/>
      <point x="97" y="20"/>
      <point x="39" y="73"/>
      <point x="8" y="147"/>
      <point x="8" y="191" type="qcurve"/>
      <point x="8" y="248"/>
      <point x="56" y="350"/>
      <point x="135" y="427"/>
      <point x="237" y="472"/>
      <point x="292" y="472" type="qcurve"/>
      <point x="334" y="472"/>
      <point x="404" y="437"/>
      <point x="424" y="408" type="qcurve"/>
      <point x="423" y="425"/>
      <point x="420" y="457"/>
      <point x="417" y="472" type="qcurve"/>
      <point x="412" y="495"/>
      <point x="396" y="538"/>
      <point x="385" y="558" type="qcurve"/>
      <point x="301" y="516" type="line"/>
      <point x="269" y="577" type="line"/>
      <point x="347" y="616" type="line"/>
      <point x="322" y="646"/>
      <point x="255" y="702"/>
      <point x="211" y="730" type="qcurve"/>
      <point x="408" y="730" type="line"/>
      <point x="428" y="719"/>
      <point x="462" y="688"/>
      <point x="477" y="670" type="qcurve"/>
      <point x="561" y="712" type="line"/>
    </contour>
    <contour>
      <point x="175" y="212" type="qcurve"/>
      <point x="175" y="174"/>
      <point x="220" y="125"/>
      <point x="259" y="125" type="qcurve"/>
      <point x="286" y="125"/>
      <point x="334" y="146"/>
      <point x="369" y="182"/>
      <point x="390" y="231"/>
      <point x="390" y="258" type="qcurve"/>
      <point x="390" y="296"/>
      <point x="346" y="344"/>
      <point x="306" y="344" type="qcurve"/>
      <point x="279" y="344"/>
      <point x="231" y="324"/>
      <point x="196" y="288"/>
      <point x="175" y="240"/>
    </contour>
  </outline>
</glyph>
<glyph name="ntilde" format="1">
  <advance width="591"/>
  <unicode hex="00F1"/>
  <outline>
    <contour>
      <point x="102" y="525" type="line"/>
      <point x="246" y="525" type="line"/>
      <point x="227" y="437" type="line"/>
      <point x="264" y="484"/>
      <point x="374" y="535"/>
      <point x="440" y="535" type="qcurve"/>
      <point x="475" y="535"/>
      <point x="520" y="515"/>
      <point x="547" y="482"/>
      <point x="558" y="438"/>
      <point x="558" y="414" type="qcurve"/>
      <point x="558" y="394"/>
      <point x="553" y="355"/>
      <point x="549" y="336" type="qcurve"/>
      <point x="478" y="0" type="line"/>
      <point x="318" y="0" type="line"/>
      <point x="381" y="295" type="line"/>
      <point x="385" y="315"/>
      <point x="385" y="335" type="qcurve"/>
      <point x="385" y="366"/>
      <point x="359" y="394"/>
      <point x="337" y="394" type="qcurve"/>
      <point x="308" y="394"/>
      <point x="236" y="342"/>
      <point x="214" y="301" type="qcurve"/>
      <point x="150" y="0" type="line"/>
      <point x="-10" y="0" type="line"/>
    </contour>
    <contour>
      <point x="417" y="588" type="qcurve"/>
      <point x="395" y="588"/>
      <point x="365" y="602"/>
      <point x="340" y="620"/>
      <point x="316" y="634"/>
      <point x="300" y="634" type="qcurve"/>
      <point x="284" y="634"/>
      <point x="263" y="620"/>
      <point x="251" y="602"/>
      <point x="246" y="587"/>
      <point x="246" y="586" type="qcurve"/>
      <point x="159" y="586" type="line"/>
      <point x="161" y="597"/>
      <point x="184" y="644"/>
      <point x="224" y="692"/>
      <point x="279" y="728"/>
      <point x="313" y="728" type="qcurve"/>
      <point x="336" y="728"/>
      <point x="366" y="713"/>
      <point x="390" y="695"/>
      <point x="413" y="680"/>
      <point x="430" y="680" type="qcurve"/>
      <point x="446" y="680"/>
      <point x="469" y="695"/>
      <point x="483" y="713"/>
      <point x="490" y="729"/>
      <point x="490" y="730" type="qcurve"/>
      <point x="575" y="730" type="line"/>
      <point x="573" y="722"/>
      <point x="550" y="676"/>
      <point x="509" y="626"/>
      <point x="452" y="588"/>
    </contour>
  </outline>
</glyph>
<glyph name="Aogonek" format="1">
  <advance width="641"/>
  <unicode hex="0104"/>
  <outline>
    <contour>
      <point x="496" y="-205" type="line"/>
      <point x="439" y="-197"/>
      <point x="384" y="-152"/>
      <point x="384" y="-123" type="qcurve"/>
      <point x="384" y="-59"/>
      <point x="490" y="0" type="qcurve"/>
      <point x="410" y="0" type="line"/>
      <point x="395" y="159" type="line"/>
      <point x="193" y="159" type="line"/>
      <point x="112" y="0" type="line"/>
      <point x="-57" y="0" type="line"/>
      <point x="337" y="710" type="line"/>
      <point x="486" y="710" type="line"/>
      <point x="578" y="0" type="line"/>
      <point x="489" y="-51"/>
      <point x="489" y="-88" type="qcurve"/>
      <point x="489" y="-102"/>
      <point x="516" y="-120"/>
      <point x="545" y="-121" type="qcurve"/>
    </contour>
    <contour>
      <point x="392" y="272" type="line"/>
      <point x="372" y="523" type="line"/>
      <point x="242" y="272" type="line"/>
    </contour>
  </outline>
</glyph>
<glyph name="Gcommaaccent" format="1">
  <advance width="704"/>
  <unicode hex="0122"/>
  <outline>
    <contour>
      <point x="209" y="-213" type="line"/>
      <point x="254" y="-146" type="line"/>
      <point x="207" y="-146" type="line"/>
      <point x="228" y="-47" type="line"/>
      <point x="361" y="-47" type="line"/>
      <point x="340" y="-146" type="line"/>
      <point x="279" y="-213" type="line"/>
    </contour>
    <contour>
      <point x="481" y="70" type="line"/>
      <point x="433" y="32"/>
      <point x="342" y="-5"/>
      <point x="291" y="-5" type="qcurve"/>
      <point x="234" y="-5"/>
      <point x="140" y="37"/>
      <point x="71" y="113"/>
      <point x="33" y="220"/>
      <point x="33" y="285" type="qcurve"/>
      <point x="33" y="373"/>
      <point x="104" y="530"/>
      <point x="223" y="647"/>
      <point x="376" y="715"/>
      <point x="458" y="715" type="qcurve"/>
      <point x="551" y="715"/>
      <point x="676" y="632"/>
      <point x="696" y="560" type="qcurve"/>
      <point x="555" y="468" type="line"/>
      <point x="542" y="516"/>
      <point x="469" y="569"/>
      <point x="421" y="569" type="qcurve"/>
      <point x="377" y="569"/>
      <point x="298" y="526"/>
      <point x="238" y="453"/>
      <point x="202" y="357"/>
      <point x="202" y="304" type="qcurve"/>
      <point x="202" y="269"/>
      <point x="220" y="209"/>
      <point x="255" y="165"/>
      <point x="304" y="141"/>
      <point x="336" y="141" type="qcurve"/>
      <point x="425" y="141"/>
      <point x="515" y="229" type="qcurve"/>
      <point x="520" y="252" type="line"/>
      <point x="391" y="252" type="line"/>
      <point x="416" y="371" type="line"/>
      <point x="681" y="371" type="line"/>
      <point x="602" y="0" type="line"/>
      <point x="466" y="0" type="line"/>
    </contour>
  </outline>
</glyph>
<glyph name="hcircumflex" format="1">
  <advance width="591"/>
  <unicode hex="0125"/>
  <outline>
    <contour>
      <point x="307" y="622" type="line"/>
      <point x="425" y="729" type="line"/>
      <point x="531" y="729" type="line"/>
      <point x="607" y="622" type="line"/>
      <point x="525" y="587" type="line"/>
      <point x="462" y="649" type="line"/>
      <point x="375" y="587" type="line"/>
    </contour>
    <contour>
      <point x="145" y="730" type="line"/>
      <point x="305" y="730" type="line"/>
      <point x="243" y="437" type="line"/>
      <point x="280" y="484"/>
      <point x="380" y="535"/>
      <point x="435" y="535" type="qcurve"/>
      <point x="471" y="535"/>
      <point x="518" y="515"/>
      <point x="547" y="482"/>
      <point x="558" y="438"/>
      <point x="558" y="414" type="qcurve"/>
      <point x="558" y="395"/>
      <point x="553" y="356"/>
      <point x="549" y="336" type="qcurve"/>
      <point x="478" y="0" type="line"/>
      <point x="318" y="0" type="line"/>
      <point x="381" y="295" type="line"/>
      <point x="383" y="306"/>
      <point x="385" y="325"/>
      <point x="385" y="334" type="qcurve"/>
      <point x="385" y="365"/>
      <point x="357" y="394"/>
      <point x="333" y="394" type="qcurve"/>
      <point x="321" y="394"/>
      <point x="289" y="381"/>
      <point x="256" y="356"/>
      <point x="225" y="322"/>
      <point x="214" y="301" type="qcurve"/>
      <point x="150" y="0" type="line"/>
      <point x="-10" y="0" type="line"/>
    </contour>
  </outline>
</glyph>
<glyph name="dotlessi" format="1">
  <advance width="268"/>
  <unicode hex="0131"/>
  <outline>
    <contour>
      <point x="150" y="522" type="move" name="top"/>
    </contour>
    <contour>
      <point x="102" y="525" type="line"/>
      <point x="262" y="525" type="line"/>
      <point x="150" y="0" type="line"/>
      <point x="-10" y="0" type="line"/>
    </contour>
  </outline>
</glyph>
<glyph name="Ncaron" format="1">
  <advance width="729"/>
  <unicode hex="0147"/>
  <outline>
    <contour>
      <point x="310" y="879" type="line"/>
      <point x="399" y="916" type="line"/>
      <point x="466" y="853" type="line"/>
      <point x="560" y="916" type="line"/>
      <point x="635" y="879" type="line"/>
      <point x="507" y="772" type="line"/>
      <point x="392" y="772" type="line"/>
    </contour>
    <contour>
      <point x="155" y="710" type="line"/>
      <point x="283" y="710" type="line"/>
      <point x="496" y="293" type="line"/>
      <point x="584" y="710" type="line"/>
      <point x="748" y="710" type="line"/>
      <point x="597" y="0" type="line"/>
      <point x="467" y="0" type="line"/>
      <point x="254" y="406" type="line"/>
      <point x="168" y="0" type="line"/>
      <point x="4" y="0" type="line"/>
    </contour>
  </outline>
</glyph>
<glyph name="ohungarumlaut" format="1">
  <advance width="591"/>
  <unicode hex="0151"/>
  <outline>
    <contour>
      <point x="299" y="588" type="line"/>
      <point x="218" y="600" type="line"/>
      <point x="286" y="730" type="line"/>
      <point x="405" y="730" type="line"/>
    </contour>
    <contour>
      <point x="469" y="588" type="line"/>
      <point x="388" y="600" type="line"/>
      <point x="455" y="730" type="line"/>
      <point x="575" y="730" type="line"/>
    </contour>
    <contour>
      <point x="229" y="-10" type="qcurve"/>
      <point x="174" y="-10"/>
      <point x="92" y="25"/>
      <point x="38" y="85"/>
      <point x="11" y="164"/>
      <point x="11" y="209" type="qcurve"/>
      <point x="11" y="271"/>
      <point x="59" y="388"/>
      <point x="147" y="480"/>
      <point x="270" y="535"/>
      <point x="345" y="535" type="qcurve"/>
      <point x="399" y="535"/>
      <point x="481" y="500"/>
      <point x="536" y="440"/>
      <point x="563" y="361"/>
      <point x="563" y="316" type="qcurve"/>
      <point x="563" y="254"/>
      <point x="515" y="137"/>
      <point x="427" y="46"/>
      <point x="304" y="-10"/>
    </contour>
    <contour>
      <point x="258" y="125" type="qcurve"/>
      <point x="285" y="125"/>
      <point x="335" y="151"/>
      <point x="373" y="198"/>
      <point x="396" y="260"/>
      <point x="396" y="296" type="qcurve"/>
      <point x="396" y="343"/>
      <point x="353" y="399"/>
      <point x="316" y="399" type="qcurve"/>
      <point x="289" y="399"/>
      <point x="239" y="373"/>
      <point x="201" y="326"/>
      <point x="178" y="264"/>
      <point x="178" y="228" type="qcurve"/>
      <point x="178" y="181"/>
      <point x="221" y="125"/>
    </contour>
  </outline>
</glyph>
<glyph name="uni0162" format="1">
  <advance width="596"/>
  <unicode hex="0162"/>
  <outline>
    <contour>
      <point x="273" y="566" type="line"/>
      <point x="70" y="566" type="line"/>
      <point x="100" y="710" type="line"/>
      <point x="669" y="710" type="line"/>
      <point x="639" y="566" type="line"/>
      <point x="437" y="566" type="line"/>
      <point x="316" y="0" type="line"/>
      <point x="263" y="0" type="line"/>
      <point x="230" y="-38" type="line"/>
      <point x="242" y="-35"/>
      <point x="258" y="-35" type="qcurve"/>
      <point x="287" y="-35"/>
      <point x="330" y="-63"/>
      <point x="330" y="-95" type="qcurve"/>
      <point x="330" y="-117"/>
      <point x="310" y="-156"/>
      <point x="271" y="-186"/>
      <point x="212" y="-204"/>
      <point x="172" y="-204" type="qcurve"/>
      <point x="139" y="-204"/>
      <point x="88" y="-191"/>
      <point x="71" y="-183" type="qcurve"/>
      <point x="113" y="-127" type="line"/>
      <point x="122" y="-134"/>
      <point x="169" y="-147"/>
      <point x="195" y="-147" type="qcurve"/>
      <point x="221" y="-147"/>
      <point x="255" y="-130"/>
      <point x="255" y="-109" type="qcurve"/>
      <point x="255" y="-95"/>
      <point x="231" y="-83"/>
      <point x="210" y="-83" type="qcurve"/>
      <point x="190" y="-83"/>
      <point x="144" y="-91"/>
      <point x="132" y="-94" type="qcurve"/>
      <point x="197" y="0" type="line"/>
      <point x="152" y="0" type="line"/>
    </contour>
  </outline>
</glyph>
<glyph name="Uring" format="1">
  <advance width="716"/>
  <unicode hex="016E"/>
  <outline>
    <contour>
      <point x="362" y="818" type="qcurve"/>
      <point x="362" y="866"/>
      <point x="431" y="916"/>
      <point x="486" y="916" type="qcurve"/>
      <point x="528" y="916"/>
      <point x="574" y="882"/>
      <point x="574" y="850" type="qcurve"/>
      <point x="574" y="803"/>
      <point x="505" y="753"/>
      <point x="451" y="753" type="qcurve"/>
      <point x="409" y="753"/>
      <point x="362" y="786"/>
    </contour>
    <contour>
      <point x="475" y="869" type="qcurve"/>
      <point x="457" y="869"/>
      <point x="430" y="846"/>
      <point x="430" y="829" type="qcurve"/>
      <point x="430" y="816"/>
      <point x="447" y="800"/>
      <point x="461" y="800" type="qcurve"/>
      <point x="478" y="800"/>
      <point x="507" y="823"/>
      <point x="507" y="841" type="qcurve"/>
      <point x="507" y="853"/>
      <point x="489" y="869"/>
    </contour>
    <contour>
      <point x="292" y="-6" type="qcurve"/>
      <point x="227" y="-6"/>
      <point x="137" y="31"/>
      <point x="80" y="96"/>
      <point x="54" y="185"/>
      <point x="54" y="236" type="qcurve"/>
      <point x="54" y="290"/>
      <point x="66" y="347" type="qcurve"/>
      <point x="144" y="710" type="line"/>
      <point x="308" y="710" type="line"/>
      <point x="230" y="347" type="line"/>
      <point x="221" y="303"/>
      <point x="221" y="266" type="qcurve"/>
      <point x="221" y="239"/>
      <point x="232" y="193"/>
      <point x="256" y="159"/>
      <point x="295" y="140"/>
      <point x="323" y="140" type="qcurve"/>
      <point x="361" y="140"/>
      <point x="421" y="175"/>
      <point x="465" y="233"/>
      <point x="495" y="308"/>
      <point x="504" y="347" type="qcurve"/>
      <point x="581" y="710" type="line"/>
      <point x="745" y="710" type="line"/>
      <point x="668" y="347" type="line"/>
      <point x="652" y="273"/>
      <point x="589" y="145"/>
      <point x="495" y="49"/>
      <point x="370" y="-6"/>
    </contour>
  </outline>
</glyph>
<glyph name="uni01C4" format="1">
  <advance width="1288"/>
  <unicode hex="01C4"/>
  <outline>
    <contour>
      <point x="941" y="879" type="line"/>
      <point x="1030" y="916" type="line"/>
      <point x="1097" y="853" type="line"/>
      <point x="1191" y="916" type="line"/>
      <point x="1266" y="879" type="line"/>
      <point x="1138" y="772" type="line"/>
      <point x="1023" y="772" type="line"/>
    </contour>
    <contour>
      <point x="683" y="123" type="line"/>
      <point x="1118" y="566" type="line"/>
      <point x="791" y="566" type="line"/>
      <point x="821" y="710" type="line"/>
      <point x="1339" y="710" type="line"/>
      <point x="1312" y="587" type="line"/>
      <point x="893" y="144" type="line"/>
      <point x="1222" y="144" type="line"/>
      <point x="1192" y="0" type="line"/>
      <point x="657" y="0" type="line"/>
    </contour>
    <contour>
      <point x="155" y="710" type="line"/>
      <point x="409" y="710" type="line"/>
      <point x="478" y="710"/>
      <point x="581" y="667"/>
      <point x="648" y="593"/>
      <point x="681" y="492"/>
      <point x="681" y="434" type="qcurve"/>
      <point x="681" y="340"/>
      <point x="617" y="181"/>
      <point x="503" y="65"/>
      <point x="348" y="0"/>
      <point x="258" y="0" type="qcurve"/>
      <point x="4" y="0" type="line"/>
    </contour>
    <contour>
      <point x="288" y="144" type="line"/>
      <point x="338" y="144"/>
      <point x="420" y="187"/>
      <point x="479" y="261"/>
      <point x="511" y="357"/>
      <point x="511" y="410" type="qcurve"/>
      <point x="511" y="480"/>
      <point x="444" y="566"/>
      <point x="378" y="566" type="qcurve"/>
      <point x="288" y="566" type="line"/>
      <point x="198" y="144" type="line"/>
    </contour>
  </outline>
</glyph>
<glyph name="uni01C9" format="1">
  <advance width="599"/>
  <unicode hex="01C9"/>
  <outline>
    <contour>
      <point x="251" y="-202" type="qcurve"/>
      <point x="213" y="-202"/>
      <point x="149" y="-177"/>
      <point x="126" y="-152" type="qcurve"/>
      <point x="216" y="-43" type="line"/>
      <point x="223" y="-54"/>
      <point x="246" y="-64"/>
      <point x="260" y="-64" type="qcurve"/>
      <point x="280" y="-64"/>
      <point x="314" y="-35"/>
      <point x="319" y="-9" type="qcurve"/>
      <point x="432" y="525" type="line"/>
      <point x="592" y="525" type="line"/>
      <point x="482" y="3" type="line"/>
      <point x="472" y="-42"/>
      <point x="428" y="-118"/>
      <point x="366" y="-172"/>
      <point x="291" y="-202"/>
    </contour>
    <contour>
      <point x="476" y="730" type="line"/>
      <point x="636" y="730" type="line"/>
      <point x="605" y="585" type="line"/>
      <point x="445" y="585" type="line"/>
    </contour>
    <contour>
      <point x="126" y="-9" type="qcurve"/>
      <point x="69" y="-9"/>
      <point x="11" y="41"/>
      <point x="11" y="89" type="qcurve"/>
      <point x="11" y="99"/>
      <point x="14" y="119"/>
      <point x="16" y="131" type="qcurve"/>
      <point x="143" y="730" type="line"/>
      <point x="303" y="730" type="line"/>
      <point x="187" y="187" type="line"/>
      <point x="186" y="182"/>
      <point x="185" y="171"/>
      <point x="185" y="166" type="qcurve"/>
      <point x="185" y="127"/>
      <point x="223" y="127" type="qcurve"/>
      <point x="234" y="127"/>
      <point x="263" y="134"/>
      <point x="276" y="141" type="qcurve"/>
      <point x="271" y="21" type="line"/>
      <point x="239" y="7"/>
      <point x="159" y="-9"/>
    </contour>
  </outline>
</glyph>
<glyph name="uni01CC" format="1">
  <advance width="864"/>
  <unicode hex="01CC"/>
  <outline>
    <contour>
      <point x="516" y="-202" type="qcurve"/>
      <point x="478" y="-202"/>
      <point x="414" y="-177"/>
      <point x="391" y="-152" type="qcurve"/>
      <point x="481" y="-43" type="line"/>
      <point x="488" y="-54"/>
      <point x="511" y="-64"/>
      <point x="525" y="-64" type="qcurve"/>
      <point x="545" y="-64"/>
      <point x="579" y="-35"/>
      <point x="584" y="-9" type="qcurve"/>
      <point x="697" y="525" type="line"/>
      <point x="857" y="525" type="line"/>
      <point x="747" y="3" type="line"/>
      <point x="737" y="-42"/>
      <point x="693" y="-118"/>
      <point x="631" y="-172"/>
      <point x="556" y="-202"/>
    </contour>
    <contour>
      <point x="741" y="730" type="line"/>
      <point x="901" y="730" type="line"/>
      <point x="870" y="585" type="line"/>
      <point x="710" y="585" type="line"/>
    </contour>
    <contour>
      <point x="102" y="525" type="line"/>
      <point x="246" y="525" type="line"/>
      <point x="227" y="437" type="line"/>
      <point x="264" y="484"/>
      <point x="374" y="535"/>
      <point x="440" y="535" type="qcurve"/>
      <point x="475" y="535"/>
      <point x="520" y="515"/>
      <point x="547" y="482"/>
      <point x="558" y="438"/>
      <point x="558" y="414" type="qcurve"/>
      <point x="558" y="394"/>
      <point x="553" y="355"/>
      <point x="549" y="336" type="qcurve"/>
      <point x="478" y="0" type="line"/>
      <point x="318" y="0" type="line"/>
      <point x="381" y="295" type="line"/>
      <point x="385" y="315"/>
      <point x="385" y="335" type="qcurve"/>
      <point x="385" y="366"/>
      <point x="359" y="394"/>
      <point x="337" y="394" type="qcurve"/>
      <point x="308" y="394"/>
      <point x="236" y="342"/>
      <point x="214" y="301" type="qcurve"/>
      <point x="150" y="0" type="line"/>
      <point x="-10" y="0" type="line"/>
    </contour>
  </outline>
</glyph>
<glyph name="Oogonek" format="1">
  <advance width="733"/>
  <unicode hex="01EA"/>
  <outline>
    <contour>
      <point x="277" y="-204" type="line"/>
      <point x="220" y="-196"/>
      <point x="165" y="-151"/>
      <point x="165" y="-122" type="qcurve"/>
      <point x="165" y="-93"/>
      <point x="214" y="-32"/>
      <point x="263" y="-3" type="qcurve"/>
      <point x="207" y="4"/>
      <point x="121" y="57"/>
      <point x="63" y="137"/>
      <point x="33" y="237"/>
      <point x="33" y="291" type="qcurve"/>
      <point x="33" y="345"/>
      <point x="65" y="449"/>
      <point x="122" y="543"/>
      <point x="200" y="623"/>
      <point x="295" y="681"/>
      <point x="401" y="714"/>
      <point x="457" y="714" type="qcurve"/>
      <point x="521" y="714"/>
      <point x="621" y="664"/>
      <point x="688" y="582"/>
      <point x="723" y="474"/>
      <point x="723" y="417" type="qcurve"/>
      <point x="723" y="343"/>
      <point x="664" y="202"/>
      <point x="563" y="87"/>
      <point x="428" y="9"/>
      <point x="353" y="-2" type="qcurve"/>
      <point x="270" y="-50"/>
      <point x="270" y="-87" type="qcurve"/>
      <point x="270" y="-101"/>
      <point x="297" y="-119"/>
      <point x="326" y="-120" type="qcurve"/>
    </contour>
    <contour>
      <point x="333" y="140" type="qcurve"/>
      <point x="385" y="140"/>
      <point x="467" y="190"/>
      <point x="524" y="267"/>
      <point x="555" y="361"/>
      <point x="555" y="406" type="qcurve"/>
      <point x="555" y="439"/>
      <point x="539" y="497"/>
      <point x="507" y="542"/>
      <point x="457" y="568"/>
      <point x="423" y="568" type="qcurve"/>
      <point x="372" y="568"/>
      <point x="289" y="519"/>
      <point x="232" y="443"/>
      <point x="201" y="349"/>
      <point x="201" y="304" type="qcurve"/>
      <point x="201" y="271"/>
      <point x="217" y="212"/>
      <point x="249" y="167"/>
      <point x="299" y="140"/>
    </contour>
  </outline>
</glyph>
<glyph name="Einvertedbreve" format="1">
  <advance width="576"/>
  <unicode hex="0206"/>
  <outline>
    <contour>
      <point x="260" y="769" type="line"/>
      <point x="267" y="801"/>
      <point x="299" y="855"/>
      <point x="345" y="894"/>
      <point x="401" y="916"/>
      <point x="432" y="916" type="qcurve"/>
      <point x="486" y="916"/>
      <point x="545" y="850"/>
      <point x="545" y="802" type="qcurve"/>
      <point x="545" y="787"/>
      <point x="542" y="769" type="qcurve"/>
      <point x="458" y="769" type="line"/>
      <point x="461" y="785"/>
      <point x="461" y="799" type="qcurve"/>
      <point x="461" y="846"/>
      <point x="417" y="846" type="qcurve"/>
      <point x="391" y="846"/>
      <point x="351" y="811"/>
      <point x="343" y="769" type="qcurve"/>
    </contour>
    <contour>
      <point x="155" y="710" type="line"/>
      <point x="622" y="710" type="line"/>
      <point x="591" y="566" type="line"/>
      <point x="288" y="566" type="line"/>
      <point x="259" y="428" type="line"/>
      <point x="519" y="428" type="line"/>
      <point x="491" y="295" type="line"/>
      <point x="231" y="295" type="line"/>
      <point x="198" y="144" type="line"/>
      <point x="510" y="144" type="line"/>
      <point x="480" y="0" type="line"/>
      <point x="4" y="0" type="line"/>
    </contour>
  </outline>
</glyph>
<glyph name="rinvertedbreve" format="1">
  <advance width="392"/>
  <unicode hex="0213"/>
  <outline>
    <contour>
      <point x="127" y="583" type="line"/>
      <point x="134" y="615"/>
      <point x="166" y="669"/>
      <point x="212" y="708"/>
      <point x="268" y="730"/>
      <point x="299" y="730" type="qcurve"/>
      <point x="353" y="730"/>
      <point x="412" y="664"/>
      <point x="412" y="616" type="qcurve"/>
      <point x="412" y="601"/>
      <point x="409" y="583" type="qcurve"/>
      <point x="325" y="583" type="line"/>
      <point x="328" y="599"/>
      <point x="328" y="613" type="qcurve"/>
      <point x="328" y="660"/>
      <point x="284" y="660" type="qcurve"/>
      <point x="258" y="660"/>
      <point x="218" y="625"/>
      <point x="210" y="583" type="qcurve"/>
    </contour>
    <contour>
      <point x="102" y="525" type="line"/>
      <point x="249" y="525" type="line"/>
      <point x="226" y="419" type="line"/>
      <point x="264" y="472"/>
      <point x="357" y="532"/>
      <point x="402" y="532" type="qcurve"/>
      <point x="421" y="532"/>
      <point x="425" y="531" type="qcurve"/>
      <point x="395" y="388" type="line"/>
      <point x="341" y="387"/>
      <point x="246" y="351"/>
      <point x="217" y="315" type="qcurve"/>
      <point x="150" y="0" type="line"/>
      <point x="-10" y="0" type="line"/>
    </contour>
  </outline>
</glyph>
<glyph name="schwa" format="1">
  <advance width="584"/>
  <unicode hex="0259"/>
  <outline>
    <contour>
      <point x="223" y="-10" type="qcurve"/>
      <point x="168" y="-10"/>
      <point x="86" y="22"/>
      <point x="31" y="78"/>
      <point x="4" y="153"/>
      <point x="4" y="197" type="qcurve"/>
      <point x="4" y="225"/>
      <point x="16" y="286"/>
      <point x="26" y="312" type="qcurve"/>
      <point x="390" y="312" type="line"/>
      <point x="391" y="317"/>
      <point x="391" y="328"/>
      <point x="391" y="333" type="qcurve"/>
      <point x="391" y="375"/>
      <point x="342" y="419"/>
      <point x="308" y="419" type="qcurve"/>
      <point x="275" y="419"/>
      <point x="210" y="385"/>
      <point x="194" y="356" type="qcurve"/>
      <point x="66" y="395" type="line"/>
      <point x="108" y="456"/>
      <point x="249" y="535"/>
      <point x="338" y="535" type="qcurve"/>
      <point x="392" y="535"/>
      <point x="474" y="500"/>
      <point x="529" y="441"/>
      <point x="557" y="362"/>
      <point x="557" y="317" type="qcurve"/>
      <point x="557" y="255"/>
      <point x="509" y="137"/>
      <point x="422" y="45"/>
      <point x="298" y="-10"/>
    </contour>
    <contour>
      <point x="249" y="105" type="qcurve"/>
      <point x="291" y="105"/>
      <point x="357" y="164"/>
      <point x="372" y="214" type="qcurve"/>
      <point x="171" y="214" type="line"/>
      <point x="170" y="209"/>
      <point x="170" y="199"/>
      <point x="170" y="194" type="qcurve"/>
      <point x="170" y="152"/>
      <point x="212" y="105"/>
    </contour>
  </outline>
</glyph>
<glyph name="apostrophe" format="1">
  <advance width="515"/>
  <unicode hex="02BC"/>
  <outline>
    <contour>
      <point x="313" y="522" type="move" name="_top"/>
    </contour>
    <contour>
      <point x="232" y="600" type="line"/>
      <point x="281" y="680" type="line"/>
      <point x="281" y="730" type="line"/>
      <point x="453" y="730" type="line"/>
      <point x="327" y="572" type="line"/>
    </contour>
  </outline>
</glyph>
<glyph name="ring" format="1">
  <advance width="256"/>
  <unicode hex="02DA"/>
  <outline>
    <contour>
      <point x="126" y="522" type="move" name="_top"/>
    </contour>
    <contour>
      <point x="31" y="632" type="qcurve"/>
      <point x="31" y="680"/>
      <point x="100" y="730"/>
      <point x="155" y="730" type="qcurve"/>
      <point x="197" y="730"/>
      <point x="243" y="696"/>
      <point x="243" y="664" type="qcurve"/>
      <point x="243" y="617"/>
      <point x="174" y="567"/>
      <point x="120" y="567" type="qcurve"/>
      <point x="78" y="567"/>
      <point x="31" y="600"/>
    </contour>
    <contour>
      <point x="144" y="683" type="qcurve"/>
      <point x="126" y="683"/>
      <point x="99" y="660"/>
      <point x="99" y="643" type="qcurve"/>
      <point x="99" y="630"/>
      <point x="116" y="614"/>
      <point x="130" y="614" type="qcurve"/>
      <point x="147" y="614"/>
      <point x="176" y="637"/>
      <point x="176" y="655" type="qcurve"/>
      <point x="176" y="667"/>
      <point x="158" y="683"/>
    </contour>
  </outline>
</glyph>
<glyph name="uni0394" format="1">
  <advance width="643"/>
  <unicode hex="0394"/>
  <outline>
    <contour>
      <point x="-14" y="126" type="line"/>
      <point x="231" y="710" type="line"/>
      <point x="364" y="710" type="line"/>
      <point x="608" y="126" type="line"/>
      <point x="608" y="0" type="line"/>
      <point x="-14" y="0" type="line"/>
    </contour>
    <contour>
      <point x="450" y="144" type="line"/>
      <point x="297" y="529" type="line"/>
      <point x="148" y="144" type="line"/>
    </contour>
  </outline>
</glyph>
<glyph name="wdieresis" format="1">
  <advance width="802"/>
  <unicode hex="1E85"/>
  <outline>
    <contour>
      <point x="288" y="593" type="line"/>
      <point x="316" y="722" type="line"/>
      <point x="448" y="722" type="line"/>
      <point x="420" y="593" type="line"/>
    </contour>
    <contour>
      <point x="493" y="593" type="line"/>
      <point x="521" y="722" type="line"/>
      <point x="652" y="722" type="line"/>
      <point x="625" y="593" type="line"/>
    </contour>
    <contour>
      <point x="38" y="525" type="line"/>
      <point x="192" y="525" type="line"/>
      <point x="243" y="145" type="line"/>
      <point x="248" y="151"/>
      <point x="268" y="188"/>
      <point x="291" y="230"/>
      <point x="310" y="267"/>
      <point x="314" y="273" type="qcurve"/>
      <point x="266" y="525" type="line"/>
      <point x="399" y="525" type="line"/>
      <point x="417" y="366" type="line"/>
      <point x="420" y="372"/>
      <point x="442" y="419"/>
      <point x="467" y="472"/>
      <point x="487" y="519"/>
      <point x="489" y="525" type="qcurve"/>
      <point x="612" y="525" type="line"/>
      <point x="585" y="453"/>
      <point x="526" y="335"/>
      <point x="484" y="274" type="qcurve"/>
      <point x="501" y="181" type="line"/>
      <point x="541" y="234"/>
      <point x="597" y="315"/>
      <point x="640" y="390"/>
      <point x="677" y="471"/>
      <point x="698" y="525" type="qcurve"/>
      <point x="843" y="525" type="line"/>
      <point x="794" y="394"/>
      <point x="625" y="131"/>
      <point x="510" y="0" type="qcurve"/>
      <point x="405" y="0" type="line"/>
      <point x="380" y="184" type="line"/>
      <point x="377" y="180"/>
      <point x="361" y="152"/>
      <point x="340" y="114"/>
      <point x="315" y="70"/>
      <point x="293" y="32"/>
      <point x="277" y="3"/>
      <point x="274" y="0" type="qcurve"/>
      <point x="136" y="0" type="line"/>
    </contour>
  </outline>
</glyph>
<glyph name="Zdotbelow" format="1">
  <advance width="595"/>
  <unicode hex="1E92"/>
  <outline>
    <contour>
      <point x="-10" y="123" type="line"/>
      <point x="425" y="566" type="line"/>
      <point x="98" y="566" type="line"/>
      <point x="128" y="710" type="line"/>
      <point x="646" y="710" type="line"/>
      <point x="619" y="587" type="line"/>
      <point x="200" y="144" type="line"/>
      <point x="529" y="144" type="line"/>
      <point x="499" y="0" type="line"/>
      <point x="-36" y="0" type="line"/>
    </contour>
    <contour>
      <point x="119" y="-204" type="line"/>
      <point x="148" y="-67" type="line"/>
      <point x="292" y="-67" type="line"/>
      <point x="263" y="-204" type="line"/>
    </contour>
  </outline>
</glyph>
<glyph name="zerosuperior" format="1">
  <advance width="482"/>
  <unicode hex="2070"/>
  <outline>
    <contour>
      <point x="258" y="381" type="qcurve"/>
      <point x="213" y="381"/>
      <point x="149" y="414"/>
      <point x="108" y="466"/>
      <point x="88" y="530"/>
      <point x="88" y="562" type="qcurve"/>
      <point x="88" y="606"/>
      <point x="129" y="697"/>
      <point x="200" y="770"/>
      <point x="296" y="817"/>
      <point x="351" y="817" type="qcurve"/>
      <point x="396" y="817"/>
      <point x="460" y="784"/>
      <point x="501" y="731"/>
      <point x="520" y="666"/>
      <point x="520" y="634" type="qcurve"/>
      <point x="520" y="590"/>
      <point x="480" y="501"/>
      <point x="409" y="427"/>
      <point x="313" y="381"/>
    </contour>
    <contour>
      <point x="185" y="575" type="qcurve"/>
      <point x="185" y="557"/>
      <point x="195" y="520"/>
      <point x="218" y="492"/>
      <point x="253" y="474"/>
      <point x="278" y="474" type="qcurve"/>
      <point x="313" y="474"/>
      <point x="367" y="504"/>
      <point x="404" y="549"/>
      <point x="423" y="600"/>
      <point x="423" y="622" type="qcurve"/>
      <point x="423" y="641"/>
      <point x="412" y="678"/>
      <point x="390" y="706"/>
      <point x="355" y="724"/>
      <point x="331" y="724" type="qcurve"/>
      <point x="296" y="724"/>
      <point x="241" y="694"/>
      <point x="204" y="650"/>
      <point x="185" y="597"/>
    </contour>
  </outline>
</glyph>
<glyph name="sixinferior" format="1">
  <advance width="421"/>
  <unicode hex="2086"/>
  <outline>
    <contour>
      <point x="345" y="80" type="qcurve"/>
      <point x="345" y="45"/>
      <point x="310" y="-18"/>
      <point x="251" y="-65"/>
      <point x="173" y="-93"/>
      <point x="130" y="-93" type="qcurve"/>
      <point x="62" y="-93"/>
      <point x="-12" y="-12"/>
      <point x="-12" y="60" type="qcurve"/>
      <point x="-12" y="122"/>
      <point x="24" y="227"/>
      <point x="90" y="304"/>
      <point x="181" y="347"/>
      <point x="236" y="347" type="qcurve"/>
      <point x="281" y="347"/>
      <point x="351" y="315"/>
      <point x="371" y="285" type="qcurve"/>
      <point x="304" y="219" type="line"/>
      <point x="292" y="238"/>
      <point x="243" y="258"/>
      <point x="213" y="258" type="qcurve"/>
      <point x="168" y="258"/>
      <point x="103" y="212"/>
      <point x="93" y="169" type="qcurve"/>
      <point x="111" y="184"/>
      <point x="171" y="199"/>
      <point x="197" y="199" type="qcurve"/>
      <point x="266" y="199"/>
      <point x="345" y="131"/>
    </contour>
    <contour>
      <point x="150" y="-7" type="qcurve"/>
      <point x="170" y="-7"/>
      <point x="208" y="5"/>
      <point x="237" y="24"/>
      <point x="255" y="50"/>
      <point x="255" y="65" type="qcurve"/>
      <point x="255" y="88"/>
      <point x="211" y="119"/>
      <point x="177" y="119" type="qcurve"/>
      <point x="156" y="119"/>
      <point x="118" y="108"/>
      <point x="89" y="89"/>
      <point x="72" y="64"/>
      <point x="72" y="49" type="qcurve"/>
      <point x="72" y="26"/>
      <point x="117" y="-7"/>
    </contour>
  </outline>
</glyph>
<glyph name="uni2219" format="1">
  <advance width="238"/>
  <unicode hex="2219"/>
  <outline>
    <contour>
      <point x="40" y="240" type="line"/>
      <point x="75" y="406" type="line"/>
      <point x="206" y="406" type="line"/>
      <point x="171" y="240" type="line"/>
    </contour>
  </outline>
</glyph>
<glyph name="greaterequal" format="1">
  <advance width="516"/>
  <unicode hex="2265"/>
  <outline>
    <contour>
      <point x="83" y="143" type="line"/>
      <point x="449" y="143" type="line"/>
      <point x="449" y="16" type="line"/>
      <point x="83" y="16" type="line"/>
    </contour>
    <contour>
      <point x="85" y="345" type="line"/>
      <point x="284" y="407" type="line"/>
      <point x="85" y="475" type="line"/>
      <point x="85" y="629" type="line"/>
      <point x="447" y="462" type="line"/>
      <point x="447" y="344" type="line"/>
      <point x="85" y="191" type="line"/>
    </contour>
  </outline>
</glyph>
<glyph name="L.sc" format="1">
  <advance width="463"/>
  <outline>
    <contour>
      <point x="271" y="707" type="move" name="top"/>
    </contour>
    <contour>
      <point x="271" y="0" type="move" name="bottom"/>
    </contour>
    <contour>
      <point x="118" y="563" type="line"/>
      <point x="261" y="563" type="line"/>
      <point x="168" y="125" type="line"/>
      <point x="418" y="125" type="line"/>
      <point x="391" y="0" type="line"/>
      <point x="-2" y="0" type="line"/>
    </contour>
  </outline>
</glyph>
<glyph name="M.sc" format="1">
  <advance width="736"/>
  <outline>
    <contour>
      <point x="118" y="563" type="line"/>
      <point x="274" y="563" type="line"/>
      <point x="365" y="285" type="line"/>
      <point x="575" y="563" type="line"/>
      <point x="730" y="563" type="line"/>
      <point x="610" y="0" type="line"/>
      <point x="467" y="0" type="line"/>
      <point x="534" y="314" type="line"/>
      <point x="362" y="90" type="line"/>
      <point x="285" y="90" type="line"/>
      <point x="208" y="314" type="line"/>
      <point x="141" y="0" type="line"/>
      <point x="-2" y="0" type="line"/>
    </contour>
  </outline>
</glyph>
<glyph name="N.sc" format="1">
  <advance width="652"/>
  <outline>
    <contour>
      <point x="333" y="707" type="move" name="top"/>
    </contour>
    <contour>
      <point x="334" y="0" type="move" name="bottom"/>
    </contour>
    <contour>
      <point x="118" y="563" type="line"/>
      <point x="230" y="563" type="line"/>
      <point x="437" y="257" type="line"/>
      <point x="502" y="563" type="line"/>
      <point x="645" y="563" type="line"/>
      <point x="526" y="0" type="line"/>
      <point x="411" y="0" type="line"/>
      <point x="204" y="297" type="line"/>
      <point x="141" y="0" type="line"/>
      <point x="-2" y="0" type="line"/>
    </contour>
  </outline>
</glyph>
<glyph name="S.sc" format="1">
  <advance width="519"/>
  <outline>
    <contour>
      <point x="248" y="729" type="move" name="top"/>
    </contour>
    <contour>
      <point x="248" y="0" type="move" name="bottom"/>
    </contour>
    <contour>
      <point x="205" y="-7" type="qcurve"/>
      <point x="141" y="-7"/>
      <point x="15" y="30"/>
      <point x="-30" y="61" type="qcurve"/>
      <point x="60" y="186" type="line"/>
      <point x="64" y="178"/>
      <point x="95" y="157"/>
      <point x="142" y="136"/>
      <point x="202" y="122"/>
      <point x="235" y="122" type="qcurve"/>
      <point x="270" y="122"/>
      <point x="303" y="144"/>
      <point x="303" y="162" type="qcurve"/>
      <point x="303" y="174"/>
      <point x="284" y="190"/>
      <point x="251" y="203"/>
      <point x="208" y="216"/>
      <point x="183" y="224" type="qcurve"/>
      <point x="120" y="244"/>
      <point x="59" y="304"/>
      <point x="59" y="353" type="qcurve"/>
      <point x="59" y="404"/>
      <point x="103" y="484"/>
      <point x="175" y="539"/>
      <point x="268" y="568"/>
      <point x="318" y="568" type="qcurve"/>
      <point x="380" y="568"/>
      <point x="481" y="528"/>
      <point x="515" y="506" type="qcurve"/>
      <point x="428" y="387" type="line"/>
      <point x="424" y="392"/>
      <point x="398" y="410"/>
      <point x="359" y="427"/>
      <point x="311" y="440"/>
      <point x="286" y="440" type="qcurve"/>
      <point x="216" y="440"/>
      <point x="216" y="398" type="qcurve"/>
      <point x="216" y="377"/>
      <point x="271" y="355"/>
      <point x="319" y="341" type="qcurve"/>
      <point x="352" y="332"/>
      <point x="406" y="308"/>
      <point x="444" y="276"/>
      <point x="465" y="232"/>
      <point x="465" y="202" type="qcurve"/>
      <point x="465" y="144"/>
      <point x="419" y="64"/>
      <point x="345" y="15"/>
      <point x="252" y="-7"/>
    </contour>
  </outline>
</glyph>
<glyph name="X.sc" format="1">
  <advance width="565"/>
  <outline>
    <contour>
      <point x="201" y="278" type="line"/>
      <point x="55" y="563" type="line"/>
      <point x="211" y="563" type="line"/>
      <point x="299" y="378" type="line"/>
      <point x="464" y="563" type="line"/>
      <point x="620" y="563" type="line"/>
      <point x="353" y="278" type="line"/>
      <point x="494" y="0" type="line"/>
      <point x="338" y="0" type="line"/>
      <point x="256" y="177" type="line"/>
      <point x="99" y="0" type="line"/>
      <point x="-58" y="0" type="line"/>
    </contour>
  </outline>
</glyph>
<glyph name="a.alt" format="1">
  <advance width="620"/>
  <outline>
    <contour>
      <point x="197" y="-10" type="qcurve"/>
      <point x="154" y="-10"/>
      <point x="85" y="22"/>
      <point x="37" y="79"/>
      <point x="11" y="157"/>
      <point x="11" y="204" type="qcurve"/>
      <point x="11" y="271"/>
      <point x="58" y="391"/>
      <point x="138" y="482"/>
      <point x="241" y="535"/>
      <point x="297" y="535" type="qcurve"/>
      <point x="349" y="535"/>
      <point x="421" y="483"/>
      <point x="434" y="439" type="qcurve"/>
      <point x="451" y="518" type="line"/>
      <point x="611" y="518" type="line"/>
      <point x="501" y="0" type="line"/>
      <point x="342" y="0" type="line"/>
      <point x="359" y="78" type="line"/>
      <point x="327" y="35"/>
      <point x="248" y="-10"/>
    </contour>
    <contour>
      <point x="268" y="125" type="qcurve"/>
      <point x="301" y="125"/>
      <point x="358" y="164"/>
      <point x="384" y="198" type="qcurve"/>
      <point x="407" y="307" type="line"/>
      <point x="401" y="349"/>
      <point x="353" y="399"/>
      <point x="319" y="399" type="qcurve"/>
      <point x="292" y="399"/>
      <point x="242" y="370"/>
      <point x="203" y="322"/>
      <point x="180" y="261"/>
      <point x="180" y="230" type="qcurve"/>
      <point x="180" y="185"/>
      <point x="226" y="125"/>
    </contour>
  </outline>
</glyph>
<glyph name="caron.alt" format="1">
  <advance width="259"/>
  <outline>
    <contour>
      <point x="91" y="522" type="move" name="_top"/>
    </contour>
    <contour>
      <point x="28" y="600" type="line"/>
      <point x="105" y="730" type="line"/>
      <point x="249" y="730" type="line"/>
      <point x="124" y="572" type="line"/>
    </contour>
  </outline>
</glyph>
<glyph name="five.numerator" format="1">
  <advance width="389"/>
  <outline>
    <contour>
      <point x="261" y="580" type="qcurve"/>
      <point x="322" y="580"/>
      <point x="396" y="516"/>
      <point x="396" y="465" type="qcurve"/>
      <point x="396" y="428"/>
      <point x="362" y="366"/>
      <point x="303" y="320"/>
      <point x="224" y="294"/>
      <point x="179" y="294" type="qcurve"/>
      <point x="128" y="294"/>
      <point x="52" y="332"/>
      <point x="36" y="365" type="qcurve"/>
      <point x="103" y="428" type="line"/>
      <point x="118" y="408"/>
      <point x="169" y="384"/>
      <point x="204" y="384" type="qcurve"/>
      <point x="243" y="384"/>
      <point x="301" y="420"/>
      <point x="301" y="458" type="qcurve"/>
      <point x="301" y="486"/>
      <point x="261" y="511"/>
      <point x="240" y="511" type="qcurve"/>
      <point x="217" y="511"/>
      <point x="165" y="487"/>
      <point x="150" y="467" type="qcurve"/>
      <point x="70" y="467" type="line"/>
      <point x="82" y="498"/>
      <point x="112" y="566"/>
      <point x="143" y="635"/>
      <point x="172" y="702"/>
      <point x="183" y="731" type="qcurve"/>
      <point x="421" y="731" type="line"/>
      <point x="402" y="638" type="line"/>
      <point x="229" y="638" type="line"/>
      <point x="195" y="567" type="line"/>
      <point x="205" y="572"/>
      <point x="238" y="580"/>
    </contour>
  </outline>
</glyph>
<glyph name="four.denominator" format="1">
  <advance width="406"/>
  <outline>
    <contour>
      <point x="182" y="89" type="line"/>
      <point x="-24" y="89" type="line"/>
      <point x="-4" y="180" type="line"/>
      <point x="284" y="431" type="line"/>
      <point x="347" y="431" type="line"/>
      <point x="294" y="180" type="line"/>
      <point x="354" y="180" type="line"/>
      <point x="334" y="89" type="line"/>
      <point x="275" y="89" type="line"/>
      <point x="256" y="1" type="line"/>
      <point x="164" y="1" type="line"/>
    </contour>
    <contour>
      <point x="205" y="180" type="line"/>
      <point x="235" y="318" type="line"/>
      <point x="83" y="180" type="line"/>
    </contour>
  </outline>
</glyph>
<glyph name="six.lnum" format="1">
  <advance width="592"/>
  <outline>
    <contour>
      <point x="235" y="-10" type="qcurve"/>
      <point x="141" y="-10"/>
      <point x="41" y="117"/>
      <point x="41" y="229" type="qcurve"/>
      <point x="41" y="330"/>
      <point x="94" y="508"/>
      <point x="191" y="640"/>
      <point x="325" y="716"/>
      <point x="406" y="716" type="qcurve"/>
      <point x="469" y="716"/>
      <point x="564" y="662"/>
      <point x="596" y="611" type="qcurve"/>
      <point x="484" y="509" type="line"/>
      <point x="467" y="541"/>
      <point x="409" y="577"/>
      <point x="374" y="577" type="qcurve"/>
      <point x="320" y="577"/>
      <point x="240" y="493"/>
      <point x="222" y="416" type="qcurve"/>
      <point x="247" y="443"/>
      <point x="313" y="473"/>
      <point x="352" y="473" type="qcurve"/>
      <point x="395" y="473"/>
      <point x="466" y="444"/>
      <point x="517" y="393"/>
      <point x="544" y="322"/>
      <point x="544" y="281" type="qcurve"/>
      <point x="544" y="222"/>
      <point x="493" y="116"/>
      <point x="407" y="37"/>
      <point x="296" y="-10"/>
    </contour>
    <contour>
      <point x="264" y="125" type="qcurve"/>
      <point x="286" y="125"/>
      <point x="331" y="147"/>
      <point x="366" y="184"/>
      <point x="388" y="233"/>
      <point x="388" y="259" type="qcurve"/>
      <point x="388" y="297"/>
      <point x="346" y="347"/>
      <point x="311" y="347" type="qcurve"/>
      <point x="288" y="347"/>
      <point x="243" y="326"/>
      <point x="209" y="290"/>
      <point x="188" y="243"/>
      <point x="188" y="217" type="qcurve"/>
      <point x="188" y="179"/>
      <point x="230" y="125"/>
    </contour>
  </outline>
</glyph>
<glyph name="six.numerator" format="1">
  <advance width="421"/>
  <outline>
    <contour>
      <point x="426" y="463" type="qcurve"/>
      <point x="426" y="428"/>
      <point x="391" y="365"/>
      <point x="332" y="318"/>
      <point x="254" y="290"/>
      <point x="211" y="290" type="qcurve"/>
      <point x="143" y="290"/>
      <point x="69" y="371"/>
      <point x="69" y="444" type="qcurve"/>
      <point x="69" y="505"/>
      <point x="105" y="610"/>
      <point x="171" y="687"/>
      <point x="262" y="730"/>
      <point x="318" y="730" type="qcurve"/>
      <point x="362" y="730"/>
      <point x="433" y="699"/>
      <point x="453" y="668" type="qcurve"/>
      <point x="386" y="603" type="line"/>
      <point x="374" y="621"/>
      <point x="325" y="641"/>
      <point x="295" y="641" type="qcurve"/>
      <point x="249" y="641"/>
      <point x="185" y="595"/>
      <point x="174" y="552" type="qcurve"/>
      <point x="193" y="568"/>
      <point x="252" y="583"/>
      <point x="278" y="583" type="qcurve"/>
      <point x="347" y="583"/>
      <point x="426" y="514"/>
    </contour>
    <contour>
      <point x="231" y="376" type="qcurve"/>
      <point x="251" y="376"/>
      <point x="289" y="388"/>
      <point x="318" y="408"/>
      <point x="336" y="434"/>
      <point x="336" y="448" type="qcurve"/>
      <point x="336" y="471"/>
      <point x="292" y="502"/>
      <point x="258" y="502" type="qcurve"/>
      <point x="237" y="502"/>
      <point x="199" y="491"/>
      <point x="170" y="472"/>
      <point x="153" y="447"/>
      <point x="153" y="433" type="qcurve"/>
      <point x="153" y="410"/>
      <point x="198" y="376"/>
    </contour>
  </outline>
</glyph>
<glyph name="y.alt" format="1">
  <advance width="521"/>
  <outline>
    <contour>
      <point x="-4" y="-213" type="line"/>
      <point x="20" y="-175"/>
      <point x="85" y="-62"/>
      <point x="121" y="0" type="qcurve"/>
      <point x="45" y="525" type="line"/>
      <point x="216" y="525" type="line"/>
      <point x="237" y="137" type="line"/>
      <point x="413" y="525" type="line"/>
      <point x="563" y="525" type="line"/>
      <point x="182" y="-213" type="line"/>
    </contour>
  </outline>
</glyph>
